<mxfile host="app.diagrams.net" modified="2023-08-05T11:56:33.018Z" agent="Mozilla/5.0 (Windows NT 10.0; Win64; x64) AppleWebKit/537.36 (KHTML, like Gecko) Chrome/115.0.0.0 Safari/537.36" version="21.6.6" etag="mnu3eIEfplIArvlqUnCt" type="github">
  <diagram name="Page-1" id="UixPybhURS1tNhAP8n11">
    <mxGraphModel>
      <root>
        <mxCell id="0" />
        <mxCell id="1" parent="0" />
      </root>
    </mxGraphModel>
  </diagram>
</mxfile>
